# xmcd
#
# Track frame offsets:
#	150
#	15781
#	31981
#	46824
#	62361
#	82614
#	96275
#	108799
#	120562
#	132797
#	136003
#	155261
#	171876
#
# Disc length: 2484 seconds
#
# Revision: 0
# Processed by: cddbd v1.5.2PL0 Copyright (c) Steve Scherf et al.
# Submitted via: dBpowerAMP V4.0
#
DISCID=8509b20d
DTITLE=HWY 63 - Songs From The Oil Patch
DYEAR=2007
DGENRE=Blues
TTITLE0=Keep on Drillin'
TTITLE1=Rust
TTITLE2=Hwy 63
TTITLE3=Breakup
TTITLE4=Rig 42
TTITLE5=Spyder Dan
TTITLE6=Roughneck
TTITLE7=Jughound Blues
TTITLE8=V-Door
TTITLE9=Northern Lights
TTITLE10=Ice Bridge
TTITLE11=Forever Stained
TTITLE12=Home Again
EXTD=
EXTT0=
EXTT1=
EXTT2=
EXTT3=
EXTT4=
EXTT5=
EXTT6=
EXTT7=
EXTT8=
EXTT9=
EXTT10=
EXTT11=
EXTT12=
PLAYORDER=
